# xmcd
#
# Track frame offsets:
#	150
#	15440
#	29120
#	45437
#	62602
#	79340
#	91029
#	102992
#	112357
#	126367
#	141860
#	151572
#	165317
#	177490
#
# Disc length: 2649 seconds
#
# Revision: 0
# Processed by: cddbd v1.5.1PL2 Copyright (c) Steve Scherf et al.
# Submitted via: dBpowerAMP V4.0
#
DISCID=b10a570e
DTITLE=Trailer Trash - Nearer My Bar To Thee
DYEAR=1999
DGENRE=Country
TTITLE0=Bedslats
TTITLE1=Swizzle Stick
TTITLE2=Rocky Times
TTITLE3=Little House
TTITLE4=Pourin' Rain
TTITLE5=Twister
TTITLE6=Beat the Heart (Right Out Of Me)
TTITLE7=Buster Likes the Choo Choo Train
TTITLE8=Sawtooth Mountain
TTITLE9=Great Big Car
TTITLE10=Party Street
TTITLE11=Bandit 65
TTITLE12=If I Were You
TTITLE13=Cowboy In The Dust
EXTD=
EXTT0=
EXTT1=
EXTT2=
EXTT3=
EXTT4=
EXTT5=
EXTT6=
EXTT7=
EXTT8=
EXTT9=
EXTT10=
EXTT11=
EXTT12=
EXTT13=
PLAYORDER=
